<svg width="130" height="48" viewBox="0 0 130 48" fill="none" xmlns="http://www.w3.org/2000/svg">
<rect width="130" height="48" rx="4" fill="#F5F7FA"/>
<path d="M33.8778 30V18.3636H35.2869V28.75H40.696V30H33.8778ZM45.2642 30.2045C44.7112 30.2045 44.2093 30.1004 43.7585 29.892C43.3078 29.6799 42.9498 29.375 42.6847 28.9773C42.4195 28.5758 42.2869 28.0909 42.2869 27.5227C42.2869 27.0227 42.3854 26.6174 42.5824 26.3068C42.7794 25.9924 43.0426 25.7462 43.3722 25.5682C43.7017 25.3902 44.0653 25.2576 44.4631 25.1705C44.8646 25.0795 45.268 25.0076 45.6733 24.9545C46.2036 24.8864 46.6335 24.8352 46.9631 24.8011C47.2964 24.7633 47.5388 24.7008 47.6903 24.6136C47.8456 24.5265 47.9233 24.375 47.9233 24.1591V24.1136C47.9233 23.553 47.7699 23.1174 47.4631 22.8068C47.16 22.4962 46.6998 22.3409 46.0824 22.3409C45.4422 22.3409 44.9403 22.4811 44.5767 22.7614C44.2131 23.0417 43.9574 23.3409 43.8097 23.6591L42.5369 23.2045C42.7642 22.6742 43.0672 22.2614 43.446 21.9659C43.8286 21.6667 44.2453 21.4583 44.696 21.3409C45.1506 21.2197 45.5975 21.1591 46.0369 21.1591C46.3172 21.1591 46.6392 21.1932 47.0028 21.2614C47.3703 21.3258 47.7244 21.4602 48.0653 21.6648C48.41 21.8693 48.696 22.178 48.9233 22.5909C49.1506 23.0038 49.2642 23.5568 49.2642 24.25V30H47.9233V28.8182H47.8551C47.7642 29.0076 47.6127 29.2102 47.4006 29.4261C47.1884 29.642 46.9063 29.8258 46.554 29.9773C46.2017 30.1288 45.7718 30.2045 45.2642 30.2045ZM45.4688 29C45.9991 29 46.446 28.8958 46.8097 28.6875C47.1771 28.4792 47.4536 28.2102 47.6392 27.8807C47.8286 27.5511 47.9233 27.2045 47.9233 26.8409V25.6136C47.8665 25.6818 47.7415 25.7443 47.5483 25.8011C47.3589 25.8542 47.1392 25.9015 46.8892 25.9432C46.643 25.9811 46.4025 26.0152 46.1676 26.0455C45.9366 26.072 45.7491 26.0947 45.6051 26.1136C45.2566 26.1591 44.9309 26.233 44.6278 26.3352C44.3286 26.4337 44.0862 26.5833 43.9006 26.7841C43.7188 26.9811 43.6278 27.25 43.6278 27.5909C43.6278 28.0568 43.8002 28.4091 44.1449 28.6477C44.4934 28.8826 44.9347 29 45.4688 29ZM51.8935 30V18.3636H53.2344V22.6591H53.348C53.4465 22.5076 53.5829 22.3144 53.7571 22.0795C53.9351 21.8409 54.1889 21.6288 54.5185 21.4432C54.8518 21.2538 55.3026 21.1591 55.8707 21.1591C56.6056 21.1591 57.2533 21.3428 57.8139 21.7102C58.3745 22.0777 58.812 22.5985 59.1264 23.2727C59.4408 23.947 59.598 24.7424 59.598 25.6591C59.598 26.5833 59.4408 27.3845 59.1264 28.0625C58.812 28.7367 58.3764 29.2595 57.8196 29.6307C57.2628 29.9981 56.6207 30.1818 55.8935 30.1818C55.3329 30.1818 54.884 30.089 54.5469 29.9034C54.2098 29.714 53.9503 29.5 53.7685 29.2614C53.5866 29.0189 53.4465 28.8182 53.348 28.6591H53.1889V30H51.8935ZM53.2116 25.6364C53.2116 26.2955 53.3082 26.8769 53.5014 27.3807C53.6946 27.8807 53.9768 28.2727 54.348 28.5568C54.7192 28.8371 55.1738 28.9773 55.7116 28.9773C56.2723 28.9773 56.7401 28.8295 57.1151 28.5341C57.4938 28.2348 57.7779 27.8333 57.9673 27.3295C58.1605 26.822 58.2571 26.2576 58.2571 25.6364C58.2571 25.0227 58.1624 24.4697 57.973 23.9773C57.7874 23.4811 57.5052 23.089 57.1264 22.8011C56.7514 22.5095 56.2798 22.3636 55.7116 22.3636C55.1662 22.3636 54.7079 22.5019 54.3366 22.7784C53.9654 23.0511 53.6851 23.4337 53.4957 23.9261C53.3063 24.4148 53.2116 24.9848 53.2116 25.6364ZM65.3082 30.1818C64.4673 30.1818 63.742 29.9962 63.1321 29.625C62.526 29.25 62.0582 28.7273 61.7287 28.0568C61.4029 27.3826 61.2401 26.5985 61.2401 25.7045C61.2401 24.8106 61.4029 24.0227 61.7287 23.3409C62.0582 22.6553 62.5166 22.1212 63.1037 21.7386C63.6946 21.3523 64.384 21.1591 65.1719 21.1591C65.6264 21.1591 66.0753 21.2348 66.5185 21.3864C66.9616 21.5379 67.3651 21.7841 67.7287 22.125C68.0923 22.4621 68.3821 22.9091 68.598 23.4659C68.8139 24.0227 68.9219 24.7083 68.9219 25.5227V26.0909H62.1946V24.9318H67.5582C67.5582 24.4394 67.4598 24 67.2628 23.6136C67.0696 23.2273 66.7931 22.9223 66.4332 22.6989C66.0772 22.4754 65.6567 22.3636 65.1719 22.3636C64.6378 22.3636 64.1757 22.4962 63.7855 22.7614C63.3991 23.0227 63.1018 23.3636 62.8935 23.7841C62.6851 24.2045 62.581 24.6553 62.581 25.1364V25.9091C62.581 26.5682 62.6946 27.1269 62.9219 27.5852C63.1529 28.0398 63.473 28.3864 63.8821 28.625C64.2912 28.8598 64.7666 28.9773 65.3082 28.9773C65.6605 28.9773 65.9787 28.928 66.2628 28.8295C66.5507 28.7273 66.7988 28.5758 67.0071 28.375C67.2154 28.1705 67.3764 27.9167 67.4901 27.6136L68.7855 27.9773C68.6491 28.4167 68.42 28.803 68.098 29.1364C67.776 29.4659 67.3783 29.7235 66.9048 29.9091C66.4313 30.0909 65.8991 30.1818 65.3082 30.1818ZM72.3026 18.3636V30H70.9616V18.3636H72.3026Z" fill="#ABBED1"/>
<path d="M93.2502 27.0002L95.7199 24.5304C96.0129 24.2375 96.0129 23.7627 95.7199 23.4698L93.2502 21M95.5003 24.0001L84.5 24.0001" stroke="#ABBED1" stroke-width="1.1" stroke-linecap="round"/>
</svg>
